<?xml version="1.0" encoding="UTF-8"?>
<svg id="Livello_1" data-name="Livello 1" xmlns="http://www.w3.org/2000/svg" version="1.1" viewBox="0 0 24 24">
  <defs>
    <style>
      .cls-1 {
        fill: #fff;
        stroke-width: 0px;
      }
    </style>
  </defs>
  <g id="Layer_2" data-name="Layer 2">
    <g id="color-palette">
      <g id="color-palette-2">
        <path class="cls-1" d="M19.5,5.1c-2-2-4.8-3.1-7.6-3.1h0c-5.5,0-10,4.5-10,10s4.5,10,10,10h0c1.2,0,2.2-.8,2.5-1.9.2-.8,0-1.7-.6-2.3-.2-.2-.2-.5,0-.7,0,0,.2-.1.3-.1h1.6c3.2,0,5.9-2.5,6.2-5.7,0-2.3-.8-4.6-2.5-6.2ZM6.8,14.7c-.7.5-1.6.3-2.1-.4-.5-.7-.3-1.6.4-2.1.7-.5,1.6-.3,2.1.4,0,0,0,0,0,0,.5.7.3,1.6-.4,2.1,0,0,0,0,0,0ZM8.3,9.3c-.4.7-1.3,1-2,.6-.7-.4-1-1.3-.6-2s1.3-1,2-.6c0,0,0,0,0,0,.7.4.9,1.3.6,2ZM11,7c-.8,0-1.5-.7-1.5-1.5s.7-1.5,1.5-1.5,1.5.7,1.5,1.5-.7,1.5-1.5,1.5ZM16.8,7.8c-.7.4-1.6.2-2.1-.5-.4-.7-.2-1.6.5-2.1.7-.4,1.6-.2,2.1.5,0,0,0,0,0,0,.4.7.1,1.6-.5,2Z"/>
      </g>
    </g>
  </g>
</svg>