<?xml version="1.0" encoding="UTF-8"?>
<svg id="Livello_1" data-name="Livello 1" xmlns="http://www.w3.org/2000/svg" xmlns:xlink="http://www.w3.org/1999/xlink" version="1.1" viewBox="0 0 271.8 72.3">
  <defs>
    <style>
      .cls-1 {
        mask: url(#mask);
      }

      .cls-2 {
        fill: #1d1d1b;
      }

      .cls-2, .cls-3, .cls-4, .cls-5, .cls-6 {
        stroke-width: 0px;
      }

      .cls-3 {
        fill: #3c3c3b;
      }

      .cls-4 {
        fill: #213a8c;
      }

      .cls-5 {
        fill: #fccb00;
      }

      .cls-6 {
        fill: #fff;
      }

      .cls-7 {
        mask: url(#mask-1);
      }
    </style>
    <mask id="mask" x="6.8" y="3.5" width="49.5" height="54.8" maskUnits="userSpaceOnUse">
      <g>
        <rect class="cls-6" x="6.8" y="8.7" width="49.5" height="49.5"/>
        <path class="cls-2" d="M23.4,3.5h17.2s6,15,6.5,17.5,2.5,9.4-2.5,13.9c-4.9,4.6-12.5,6.9-12.5,6.9,0,0-7.6-1.8-12-6.5-4.5-4.7-4.7-9.2-3.2-13.6S23.4,3.5,23.4,3.5Z"/>
      </g>
    </mask>
    <mask id="mask-1" x="16.1" y="3.5" width="31.8" height="38.3" maskUnits="userSpaceOnUse">
      <g>
        <path class="cls-6" d="M23.4,3.5h17.2s6,15,6.5,17.5,2.5,9.4-2.5,13.9c-4.9,4.6-12.5,6.9-12.5,6.9,0,0-7.6-1.8-12-6.5-4.5-4.7-4.7-9.2-3.2-13.6S23.4,3.5,23.4,3.5Z"/>
        <path class="cls-2" d="M45,20.7c2.1,5.5,1.2,10.5-3.3,14.1-2.7,2.2-5.8,3.7-9.1,4.7-.3,0-.6.1-.9,0-3.7-1.1-7.1-2.7-9.9-5.3-3.6-3.4-4.3-7.5-3.2-12.1.4-1.6,1.1-2.3,2.8-2.5,3.1-.3,6,.3,8.9,1.3,2.1.7,4.3,1.3,6.5,1.7,2.6.4,5-.3,7.3-1.5.2-.1.5-.3.8-.4Z"/>
      </g>
    </mask>
  </defs>
  <g>
    <path class="cls-4" d="M66.4,57.8V10.4h26.7v7.3h-19.1v11.7h17v7.2h-17v13.9h20.6v7.3h-28.1Z"/>
    <path class="cls-4" d="M125.8,56.7c-1.4.4-3.2.8-5.5,1.3-2.2.4-4.7.7-7.4.7s-4.6-.4-6.3-1.2c-1.7-.8-3.1-2-4.1-3.4-1-1.5-1.7-3.2-2.2-5.2-.4-2-.7-4.3-.7-6.7v-20h7.2v18.7c0,3.8.5,6.6,1.5,8.2,1,1.6,2.7,2.5,5.1,2.5s1.8,0,2.8-.1c1,0,1.7-.2,2.2-.3v-28.9h7.2v34.7Z"/>
    <path class="cls-3" d="M145.9,58.5c-2.2,0-3.9-.3-5.4-.8-1.4-.5-2.5-1.2-3.4-2.2-.8-.9-1.4-2.1-1.8-3.5-.3-1.4-.5-3-.5-4.8V6.1l7.2-1.4v41c0,1,0,1.8.2,2.5.1.7.4,1.3.7,1.7.4.5.8.8,1.5,1.1.6.3,1.4.4,2.4.6l-1,6.8Z"/>
    <path class="cls-3" d="M163.2,21.2c2.4,0,4.4.3,6.1,1,1.6.7,2.9,1.6,3.9,2.9,1,1.2,1.7,2.7,2.1,4.5.4,1.8.6,3.7.6,5.8v21.7c-1.1.3-2.8.6-5.1,1-2.3.4-4.8.6-7.6.6s-3.6-.2-5.2-.6c-1.6-.4-2.9-1.1-4-2-1.1-.9-2-2.1-2.6-3.6-.6-1.5-.9-3.3-.9-5.4s.3-3.8,1-5.2c.7-1.4,1.6-2.6,2.8-3.5,1.2-.9,2.6-1.5,4.2-1.9,1.6-.4,3.2-.6,4.9-.6s1.6,0,2.5.2c.9.1,1.8.3,2.8.6v-1.4c0-1-.1-1.9-.3-2.7-.2-.9-.5-1.6-1-2.3-.5-.7-1.2-1.2-2-1.5-.8-.4-1.8-.5-3.1-.5s-3.2.1-4.6.4c-1.4.3-2.5.6-3.4,1l-.9-6.7c.9-.4,2.3-.7,4-1.1,1.8-.4,3.6-.5,5.6-.5ZM163.8,52c2.2,0,3.9-.1,5.1-.4v-9.2c-.4-.1-1-.3-1.7-.4-.8-.1-1.6-.2-2.5-.2s-1.6,0-2.4.2c-.8.1-1.6.4-2.2.8-.7.4-1.2.9-1.6,1.5s-.6,1.5-.6,2.5c0,2,.5,3.3,1.6,4.1,1.1.8,2.5,1.1,4.4,1.1Z"/>
    <path class="cls-3" d="M213,40c0,2.9-.4,5.5-1.1,7.8-.7,2.3-1.8,4.3-3.2,5.9-1.4,1.6-3,2.9-5,3.8-2,.9-4.2,1.3-6.7,1.3s-4.7-.2-6.9-.6c-2.2-.4-4-.9-5.4-1.4V6.1l7.2-1.4v18.5c.8-.5,1.9-1,3.1-1.4,1.2-.4,2.6-.6,4-.6,2.2,0,4.2.4,5.9,1.3,1.7.9,3.2,2.2,4.3,3.8,1.2,1.6,2,3.6,2.7,5.9.6,2.3.9,4.8.9,7.6ZM205.6,39.8c0-3.5-.6-6.3-1.8-8.3-1.2-2.1-3.1-3.1-5.8-3.1s-2.3.2-3.4.6c-1.1.4-1.9.9-2.5,1.4v20.6c.5.1,1.2.3,2,.4.8.1,1.8.2,3,.2,2.7,0,4.8-1,6.3-3.1,1.5-2.1,2.3-4.9,2.3-8.6Z"/>
    <path class="cls-3" d="M218.8,40.1c0-3.1.4-5.9,1.2-8.3.8-2.4,1.9-4.3,3.3-5.9,1.4-1.6,2.9-2.8,4.7-3.6,1.8-.8,3.6-1.2,5.4-1.2,4.3,0,7.7,1.5,10.1,4.6,2.4,3.1,3.6,7.6,3.6,13.7s0,1,0,1.5c0,.6,0,1.1,0,1.5h-20.7c.2,2.9,1.1,5.1,2.7,6.7,1.6,1.6,3.9,2.4,6.9,2.4s3.4-.2,4.8-.5c1.5-.4,2.6-.8,3.4-1.2l1,6.8c-.4.2-.9.5-1.6.7-.7.3-1.5.5-2.4.7-.9.2-1.9.4-2.9.5-1,.1-2.1.2-3.2.2-2.8,0-5.2-.5-7.2-1.4-2-.9-3.7-2.2-5-3.9-1.3-1.7-2.3-3.6-2.9-5.9-.6-2.3-1-4.7-1-7.4ZM239.8,36.4c0-1.1-.1-2.2-.4-3.2-.3-1-.7-1.9-1.2-2.7-.5-.8-1.2-1.3-2-1.8-.8-.4-1.7-.6-2.8-.6s-2.1.2-2.9.7-1.5,1.1-2.1,1.9c-.6.8-1,1.7-1.3,2.7-.3,1-.5,2-.7,3.1h13.5Z"/>
    <path class="cls-3" d="M265.6,58.5c-2.2,0-3.9-.3-5.4-.8-1.4-.5-2.5-1.2-3.4-2.2-.8-.9-1.4-2.1-1.8-3.5-.3-1.4-.5-3-.5-4.8V6.1l7.2-1.4v41c0,1,0,1.8.2,2.5.1.7.4,1.3.7,1.7.4.5.8.8,1.5,1.1.6.3,1.4.4,2.4.6l-1,6.8Z"/>
  </g>
  <g>
    <g>
      <g>
        <g class="cls-1">
          <g>
            <path class="cls-3" d="M40.5,24.7h9.9v3.9h2,0v1.9h1.9v1.9h1.9v2h-1.8v2h-2,0v-1.9h-3.9,0v-2h1.9v-1.8h-3.9v1.9h-1.9v2h-2v1.9h-4.1v3.9h0c-1.3,0-2.6,0-3.8,0v-2h1.8v-2h-1.8v-1.9c.6,0,1.2,0,1.8,0v-3.9h-5.8v-1.8h-1.9v3.8h1.9c0,.7,0,1.3,0,1.9-.6,0-1.3,0-2,0v2c-1.3,0-2.6,0-3.9,0v-4h1.9v-1.9h-7.9v-1.9h0c2.7,0,5.3,0,8,0v-2h-8,0v-1.9h4.1v-9.9h1.9v1.9h4,0v1.9h2v-1.9h0c.7,0,1.3,0,2,0h0v2h2,0c0,.6,0,1.3,0,2h-2v2.2c-.7,0-1.3,0-1.9,0,0-.7,0-1.4,0-2.1h-1.9v2.1h1.9c0,.7,0,1.3,0,2-.6,0-1.3,0-1.9,0v1.9h1.9v-1.9h2v3.9h1.9v-3.8h1.9,0v1.9h3.9v-1.9h0ZM40.6,34.4v-1.9h2.2v-2h1.9c0-.7,0-1.3,0-2h1.8v-1.9h-3.9v1.9h-2.2v1.9c-.7,0-1.3,0-1.8,0v3.8h1.9ZM25,18.7v4h1.8v-4h-1.8Z"/>
            <path class="cls-3" d="M52.4,36.4v1.9h1.9v1.9h-1.9v2h-3.8v4.1h7.6v5.9h-1.8v3.9c.6,0,1.2,0,1.8.1v1.8h-5.8c0-.6,0-1.2,0-1.8h-7.7v-2h-4.2,0v-1.9h0c1.4,0,2.7,0,4.1,0v-2h-4.1,0v-5.8h-2v-2.2h2v-1.9s0,0,0,0h4.2v-2h1.9v-1.8c.7,0,1.3,0,1.9-.1v-1.9h1.9,0v2h3.9,0ZM50.5,52.2v1.9h1.9v-1.9h-1.9v-1.9h-3.9v1.9h-1.8v1.9h3.8v-1.9c.7,0,1.3,0,1.9,0ZM40.6,42.3v6h5.9v-6h-5.9ZM48.6,38.4v1.8h1.8v-1.8h-1.8Z"/>
            <path class="cls-3" d="M7.2,9h13.7v13.7H7.2v-13.7ZM18.8,10.9h-9.6v9.6h9.6v-9.6Z"/>
            <path class="cls-3" d="M42.8,8.9h13.5v13.7h-13.5v-13.7ZM44.7,20.5h9.6v-9.6h-9.6v9.6Z"/>
            <path class="cls-3" d="M7.2,44.5h13.7v13.5H7.2v-13.5ZM9.1,46.4v9.6h9.6v-9.6h-9.6Z"/>
            <path class="cls-3" d="M11,34.5c1.3,0,2.6,0,4,0h0v2h2v3.8c2.7,0,5.4,0,8,0,0,.6,0,1.3,0,1.9h1.9v-1.9c.7,0,1.3,0,2,0,0,1.4,0,2.7,0,4.2h-2v5.8h0c-1.3,0-2.5,0-3.8,0v-1.9h1.8v-2h-1.9v-4.1h-8v-2h-2,0v-1.9h-2c0-1.4,0-2.6,0-3.9,0,0,0,0,0,0Z"/>
            <path class="cls-3" d="M36.6,54.2h-1.9v3.8h-4c0-.6,0-1.3,0-1.9.6,0,1.3,0,1.9,0v-1.9h-1.9v1.9c-.7,0-1.3,0-2,0h0v-1.9h-2,0c0-1.3,0-2.6,0-3.9h0c.7,0,1.3,0,2,0,0,.6,0,1.3,0,1.9h1.9v-1.9c.7,0,1.3,0,2,0,0,.6,0,1.3,0,1.9h1.9v-1.9h-1.9c0-.7,0-1.3,0-2h4v2h1.9,0v2h0c-.6,0-1.3,0-2,0v2h0Z"/>
            <path class="cls-3" d="M34.6,12.8h1.9v1.9h1.9v-1.8h2c0,4,0,7.9,0,11.9h0c-1.3,0-2.6,0-3.9,0h0c0-.6,0-1.3,0-2,.6,0,1.3,0,1.9,0v-4.1h-3.8,0v-2h-2,0v-2h2v-1.9h0Z"/>
            <path class="cls-3" d="M28.8,16.7v-1.9h-1.9v-1.9h1.8v-2c-.6,0-1.2,0-1.8,0v-1.8h3.8c0,.6,0,1.2.1,1.8h1.9v-1.8h7.8v1.8h-5.8c0,.7,0,1.4,0,2,0,0,0,0,0,0h-3.9v3.9h0c-.7,0-1.3,0-2,0h0Z"/>
            <path class="cls-3" d="M14.9,34.5v-9.7h1.9v1.9c.7,0,1.4,0,2,0h0v2h0c-.6,0-1.3,0-1.9,0v4h4v1.9h-6,0Z"/>
            <path class="cls-3" d="M9.1,32.5h-1.9v-7.7h1.8v1.9h3.9v1.9h-1.9v2h0c-.6,0-1.3,0-2,0v2h0Z"/>
            <path class="cls-3" d="M28.8,56.1v1.9h-5.8v-1.8h1.8v-2c.7,0,1.4,0,2,0h0v2h2,0Z"/>
            <path class="cls-3" d="M13,40.3v1.9h-5.8v-1.9c1.9,0,3.9,0,5.8,0,0,0,0,0,0,0Z"/>
            <path class="cls-3" d="M38.5,54.2v3.8h-1.9c0-1.3,0-2.6,0-3.8,0,0,0,0,0,0h2,0Z"/>
            <path class="cls-3" d="M9.1,34.5c0-.7,0-1.3,0-2h0c.7,0,1.3,0,2,0h0c0,.6,0,1.3,0,2,0,0,0,0,0,0-.6,0-1.3,0-1.9,0h0Z"/>
            <path class="cls-3" d="M9.1,34.5v1.9h-1.9v-1.9c.6,0,1.3,0,1.9,0,0,0,0,0,0,0Z"/>
            <path class="cls-3" d="M11,30.6h1.9v1.9c-.6,0-1.3,0-1.9,0h0c0-.6,0-1.3,0-2h0Z"/>
            <path class="cls-3" d="M52.4,28.6v-2h2,0v1.9c-.7,0-1.3,0-2,0,0,0,0,0,0,0Z"/>
            <path class="cls-3" d="M54.4,26.7v-1.9h1.9v1.9c-.6,0-1.3,0-1.9,0,0,0,0,0,0,0Z"/>
            <path class="cls-3" d="M23,10.8v-1.8h1.8v1.8h-1.8Z"/>
            <path class="cls-3" d="M21,36.5v1.8h-2.1v-1.8h2.1Z"/>
            <path class="cls-3" d="M26.9,40.3h-2v-2h2v2Z"/>
            <path class="cls-3" d="M24.9,36.4c0,.7,0,1.3,0,2h-1.9v-2h1.9Z"/>
            <path class="cls-3" d="M30.8,40.3c-.7,0-1.3,0-2,0v-3.9c.6,0,1.2,0,2,0v-2h1.9v3.9h-1.9v2Z"/>
            <path class="cls-3" d="M34.7,44.5h-2v-2.2h2v2.2Z"/>
            <path class="cls-3" d="M32.7,42.3h-2v-2h2v2Z"/>
            <path class="cls-3" d="M36.6,44.4v1.9h-2v-1.9h2Z"/>
            <path class="cls-3" d="M34.6,20.6h2v2.2h-2v-2.2Z"/>
            <path class="cls-3" d="M32.7,48.4h-2v-1.9h2v1.9Z"/>
            <path class="cls-3" d="M30.8,50.3h-2v-2h2v2Z"/>
            <path class="cls-3" d="M44.5,46.4h-1.8v-1.9h1.8v1.9Z"/>
            <path class="cls-3" d="M11.1,12.9h5.7v5.7h-5.7v-5.7Z"/>
            <path class="cls-3" d="M46.6,18.6v-5.7h5.8v5.7h-5.8Z"/>
            <path class="cls-3" d="M11.1,48.4h5.7v5.7h-5.7v-5.7Z"/>
          </g>
        </g>
        <path class="cls-4" d="M50,22.8c-.6-2.9-1.6-5.7-2.6-8.6-1.3-3.7-2.7-7.3-4.1-10.9h-2.6c2.2,6.2,4.4,12.5,6.6,18.7.4,1.3.5,2.7.7,4,0,4.5-2.2,7.9-5.6,10.6-2.8,2.2-5.9,3.7-9.3,4.7-.5.1-1.1.2-1.6,0-3.8-1.1-7.4-2.8-10.4-5.4-4.7-4.1-5.8-9.2-3.9-15,2-6,4.2-11.8,6.3-17.7h-2.7c-1.8,5-3.7,10-5.5,15.1-.7,2.1-1.3,4.3-1.5,6.5-.5,5.9,2,10.4,6.5,13.9,2.9,2.2,6.2,3.8,9.6,4.9.4.1.8.2.8.8,0,5.5,0,11.1,0,16.6,0,2.5-1.1,3.5-3.5,4.1-1.8.4-3.5,1-5.2,1.5-.5.1-.8.5-1.3.8,0,.1,0,.3.1.4,7.4,1.2,14.8,1.3,22.2,0,0-.2,0-.3.1-.5-.6-.3-1.1-.8-1.8-1-1.8-.5-3.6-.9-5.4-1.4-1.4-.4-2.3-1.3-2.6-2.7-.1-.6-.2-1.3-.2-2,0-5.2,0-10.4,0-15.6,0-.7.2-.9.8-1.1,3.3-1,6.5-2.5,9.3-4.6,5.5-4.1,8-9.5,6.6-16.3Z"/>
      </g>
      <g class="cls-7">
        <g>
          <polygon class="cls-5" points="32.1 9.4 32.5 10.7 33.9 10.8 32.8 11.6 33.2 13 32.1 12.2 30.9 13 31.3 11.6 30.2 10.8 31.6 10.7 32.1 9.4"/>
          <polygon class="cls-5" points="20.3 21.3 20.8 22.7 22.2 22.7 21 23.5 21.5 24.9 20.3 24.1 19.1 24.9 19.6 23.5 18.4 22.7 19.8 22.7 20.3 21.3"/>
          <polygon class="cls-5" points="21.8 15.3 22.3 16.7 23.7 16.7 22.6 17.5 23 18.9 21.8 18.1 20.7 18.9 21.1 17.5 20 16.7 21.4 16.7 21.8 15.3"/>
          <polygon class="cls-5" points="26.2 11.1 26.6 12.4 28 12.4 26.9 13.3 27.3 14.6 26.2 13.8 25 14.6 25.4 13.3 24.3 12.4 25.7 12.4 26.2 11.1"/>
          <polygon class="cls-5" points="42.3 15.3 41.9 16.7 40.4 16.7 41.6 17.5 41.2 18.9 42.3 18.1 43.5 18.9 43 17.5 44.2 16.7 42.8 16.7 42.3 15.3"/>
          <polygon class="cls-5" points="21.8 27.2 22.3 28.5 23.7 28.6 22.6 29.4 23 30.8 21.8 30 20.7 30.8 21.1 29.4 20 28.6 21.4 28.5 21.8 27.2"/>
          <polygon class="cls-5" points="42.3 27.2 41.9 28.5 40.4 28.6 41.6 29.4 41.2 30.8 42.3 30 43.5 30.8 43 29.4 44.2 28.6 42.8 28.5 42.3 27.2"/>
          <polygon class="cls-5" points="38 11.1 37.5 12.4 36.1 12.4 37.2 13.3 36.8 14.6 38 13.8 39.1 14.6 38.7 13.3 39.8 12.4 38.4 12.4 38 11.1"/>
          <polygon class="cls-5" points="26.2 31.5 26.6 32.8 28 32.8 26.9 33.7 27.3 35 26.2 34.2 25 35 25.4 33.7 24.3 32.8 25.7 32.8 26.2 31.5"/>
          <polygon class="cls-5" points="38 31.5 37.5 32.8 36.1 32.8 37.2 33.7 36.8 35 38 34.2 39.1 35 38.7 33.7 39.8 32.8 38.4 32.8 38 31.5"/>
          <polygon class="cls-5" points="43.9 21.3 44.4 22.7 45.8 22.7 44.7 23.5 45.1 24.9 43.9 24.1 42.8 24.9 43.2 23.5 42.1 22.7 43.5 22.7 43.9 21.3"/>
          <polygon class="cls-5" points="32.1 33.1 32.5 34.4 33.9 34.5 32.8 35.3 33.2 36.7 32.1 35.8 30.9 36.7 31.3 35.3 30.2 34.5 31.6 34.4 32.1 33.1"/>
        </g>
      </g>
    </g>
    <path class="cls-4" d="M45,20.8c2.2,5.6,1.2,10.6-3.3,14.3-2.7,2.3-5.8,3.7-9.2,4.8-.3,0-.6.1-.9,0-3.7-1.1-7.1-2.7-10-5.4-3.7-3.4-4.3-7.6-3.2-12.3.4-1.6,1.1-2.4,2.9-2.5,3.1-.3,6,.3,9,1.3,2.1.7,4.4,1.3,6.6,1.7,2.6.4,5.1-.3,7.4-1.5.3-.1.5-.3.8-.4Z"/>
    <g>
      <polygon class="cls-5" points="32.1 9.4 32.6 10.7 34 10.7 32.9 11.6 33.3 12.9 32.1 12.1 31 12.9 31.4 11.6 30.2 10.7 31.7 10.7 32.1 9.4"/>
      <polygon class="cls-5" points="20.3 21.3 20.8 22.6 22.2 22.6 21.1 23.5 21.5 24.8 20.3 24 19.2 24.8 19.6 23.5 18.5 22.6 19.9 22.6 20.3 21.3"/>
      <polygon class="cls-5" points="21.9 15.3 22.3 16.6 23.7 16.6 22.6 17.5 23 18.8 21.9 18 20.7 18.8 21.1 17.5 20 16.6 21.4 16.6 21.9 15.3"/>
      <polygon class="cls-5" points="26.2 11 26.6 12.3 28.1 12.4 26.9 13.2 27.3 14.6 26.2 13.8 25 14.6 25.4 13.2 24.3 12.4 25.7 12.3 26.2 11"/>
      <polygon class="cls-5" points="42.3 15.3 41.9 16.6 40.5 16.6 41.6 17.5 41.2 18.8 42.3 18 43.5 18.8 43.1 17.5 44.2 16.6 42.8 16.6 42.3 15.3"/>
      <polygon class="cls-5" points="21.9 27.2 22.3 28.5 23.7 28.5 22.6 29.4 23 30.7 21.9 29.9 20.7 30.7 21.1 29.4 20 28.5 21.4 28.5 21.9 27.2"/>
      <polygon class="cls-5" points="42.3 27.2 41.9 28.5 40.5 28.5 41.6 29.4 41.2 30.7 42.3 29.9 43.5 30.7 43.1 29.4 44.2 28.5 42.8 28.5 42.3 27.2"/>
      <polygon class="cls-5" points="38 11 37.6 12.3 36.1 12.4 37.3 13.2 36.9 14.6 38 13.8 39.2 14.6 38.7 13.2 39.9 12.4 38.5 12.3 38 11"/>
      <polygon class="cls-5" points="26.2 31.4 26.6 32.8 28.1 32.8 26.9 33.6 27.3 35 26.2 34.2 25 35 25.4 33.6 24.3 32.8 25.7 32.8 26.2 31.4"/>
      <polygon class="cls-5" points="44 21.3 44.4 22.6 45.8 22.6 44.7 23.5 45.1 24.8 44 24 42.8 24.8 43.2 23.5 42.1 22.6 43.5 22.6 44 21.3"/>
      <polygon class="cls-5" points="32.1 33.1 32.6 34.4 34 34.4 32.9 35.3 33.3 36.6 32.1 35.8 31 36.6 31.4 35.3 30.2 34.4 31.7 34.4 32.1 33.1"/>
      <polygon class="cls-5" points="38 31.2 37.5 32.5 36.1 32.5 37.3 33.4 36.8 34.7 38 33.9 39.2 34.7 38.7 33.4 39.9 32.5 38.5 32.5 38 31.2"/>
    </g>
  </g>
</svg>