<?xml version="1.0" encoding="UTF-8"?>
<svg id="Livello_1" data-name="Livello 1" xmlns="http://www.w3.org/2000/svg" version="1.1" viewBox="0 0 150 300">
  <defs>
    <style>
      .cls-1 {
        fill: gray;
        stroke-width: 0px;
      }
    </style>
  </defs>
  <path class="cls-1" d="M68.8,66.8c-.3-.2-.4-.3-.5-.4-.9-.5-1.1-.9-.7-1.8.3-.6.7-1,1.2-1.4.8-.5,1.6-.9,2.5-1.1,3.3-.8,6.6-.8,9.9,0,.9.2,1.7.5,2.5,1.1.5.3.9.7,1.1,1.3.2.4.3.8.1,1.3-.1.4-.5.5-.9.7-.1,0-.2.2-.4.3.1.3.2.6.4.8.5.6.7,1.2.7,2,0,1,0,1.9,0,2.9,0,.5-.2.9-.5,1.3-.8.7-.8,1.2-.4,2.2,0,.1.1.3.2.4.5.8.7,1.8.7,2.7,0,5.2,0,10.4,0,15.6,0,2.1,0,4.1.3,6.1.2,1.6.5,3.1,1,4.6.8,2.7,2.3,4.9,4.4,6.8.8.7,1.6,1.5,2.5,2.2,2.4,2.1,3.8,4.7,4,7.8,0,1.1.2,2.3.2,3.4,0,30.9,0,61.8,0,92.7,0,1,0,2-.2,3-.3,2.4-1.6,4.3-3.6,5.6-1.2.8-2.6,1.4-4.1,1.7-1.6.4-3.3.7-4.9.8-5.3.4-10.7.4-16,0-2-.1-3.9-.5-5.8-1.1-1.2-.4-2.4-.9-3.5-1.7-2-1.4-3.1-3.3-3.4-5.7,0-.8-.1-1.6-.1-2.4,0-31.1,0-62.1,0-93.2,0-1.7,0-3.3.4-5,.5-2,1.4-3.8,2.8-5.2.8-.7,1.5-1.5,2.3-2.1,3.8-3,5.6-7,6.3-11.7.3-2.4.4-4.8.4-7.1,0-4.9,0-9.8,0-14.8,0-1.3,0-2.4.8-3.6.5-.9.4-1.5-.4-2.3-.3-.3-.5-.7-.5-1.1,0-1.1,0-2.2,0-3.3,0-.6.2-1,.5-1.5.2-.3.4-.6.6-1ZM61.1,192.3c.8.2,1.5.5,2.2.6,3.1.7,6.3,1,9.5,1.1,3.2.1,6.5,0,9.7-.2,2.6-.2,5.1-.6,7.6-1.2.4,0,.8-.3,1.2-.4,0-.5,0-.8,0-1.2,0-15.3,0-30.6,0-45.9,0-.1,0-.3,0-.4,0-.3,0-.5-.1-.8-.6-.3-1.3-.2-1.9-.2-5.8,0-11.7,0-17.5,0-3.1,0-6.1,0-9.2,0-.6,0-1.1-.1-1.7.3,0,.3,0,.6,0,.9-.2,8.5,0,45.8.2,47.5Z"/>
</svg>